<svg xmlns="http://www.w3.org/2000/svg" viewBox="0 0 238.05 50.44"><defs><style>.cls-1{fill:#007a3e;}.cls-2{fill:#fff;}</style></defs><title>archibald-logo-colorwhite</title><g id="Calque_2" data-name="Calque 2"><g id="contenu"><path class="cls-1" d="M10.07,21.12C2.8,26.87,2.86,38.05,9.23,44.43c7.17,7.18,18.47,7.4,27.28,3.42,8.4-3.8,17.86-11.82,16.54-22C51.79,16.1,42.9,9.54,33.66,8.31a42.12,42.12,0,0,0-17.83,1.85c-5.55,1.72-11,4.12-14.92,8.5-.58.65.5,1,1,1a3,3,0,0,0,2.33-1c3.17-3.51,7.66-5.46,12.1-6.83a37.21,37.21,0,0,1,13.89-1.82c8.4.64,16.27,5.72,18.77,14C51.63,33,45.41,40.39,38.2,44.79c-7.53,4.6-17.27,5.3-24.38-.54-6.73-5.52-8.25-16.8-.94-22.58.63-.49.31-1-.32-1.22a3.05,3.05,0,0,0-2.49.67Z"/><path class="cls-1" d="M30.72,10.07c8.89-.68,15,8.87,14,16.91C43.47,36.19,36,42.63,27.19,44.55c-8.31,1.81-18.1.46-22-8C2,29.36,3.62,21.29,8.32,15.24A34.75,34.75,0,0,1,19.11,6.42C23.94,3.77,29.4,1.56,35,2.05c1.33.12,3.74-1.76,1.38-2C30.71-.42,25.16,1.41,20.1,3.8A43.92,43.92,0,0,0,7.69,12.2C1.34,18.57-2,27.75,1.32,36.48a15.85,15.85,0,0,0,8.49,9.07c5,2.1,10.87,2,16.08,1.08C35.63,44.89,45.07,39,47.74,28.92,50.59,18.19,42.58,7.29,31.21,8.15c-1.72.14-2.93,2.11-.49,1.92Z"/><path class="cls-2" d="M80.88,12.51H84l12.27,30.4h-4l-2-5H74.43l-2.05,5H68.45Zm-5.07,22h13l-6.45-16Z"/><path class="cls-2" d="M98.66,23.32h3.58v1.54a5.36,5.36,0,0,1,4-1.7,6.07,6.07,0,0,1,6.21,6.26v.63H109.2a3.39,3.39,0,0,0-3.5-3.58,3.61,3.61,0,0,0-3.46,2.79V42.91H98.66Z"/><path class="cls-2" d="M113.88,33.12A10.09,10.09,0,0,1,124,23.05a10.33,10.33,0,0,1,6.57,2.32l-2,2.79a6.66,6.66,0,1,0-4.44,11.64,6.85,6.85,0,0,0,4.4-1.61L130.4,41A9.81,9.81,0,0,1,124,43.26,10.11,10.11,0,0,1,113.88,33.12Z"/><path class="cls-2" d="M148.06,31.9a5.26,5.26,0,0,0-5.47-5.39,6.12,6.12,0,0,0-5.19,2.91V42.91h-3.58V12.23h3.58v13.1A7.33,7.33,0,0,1,143,23.05c4.53,0,8.62,3,8.62,8.33V42.91h-3.58Z"/><path class="cls-2" d="M156.16,15.81a2.18,2.18,0,0,1,2.2-2.24,2.24,2.24,0,0,1,2.25,2.24,2.27,2.27,0,0,1-2.25,2.24A2.2,2.2,0,0,1,156.16,15.81Zm.39,7.51h3.58V42.91h-3.58Z"/><path class="cls-2" d="M165.09,12.23h3.58v13a9.55,9.55,0,0,1,6.09-2.16,10.09,10.09,0,1,1,0,20.17A9.26,9.26,0,0,1,168.67,41v1.93h-3.58Zm3.58,17.54v6.61a6.73,6.73,0,0,0,5.9,3.46,6.66,6.66,0,0,0,6.8-6.72,6.58,6.58,0,0,0-6.76-6.69A6.7,6.7,0,0,0,168.67,29.77Z"/><path class="cls-2" d="M187.15,36.93c0-3.85,3.66-6.76,9-6.76a12.4,12.4,0,0,1,6.18,1.8V30.48c0-2.91-3.54-4.13-6-4.13a9.28,9.28,0,0,0-6.26,2l-1.73-2.72a13.25,13.25,0,0,1,8-2.63c4.4,0,9.44,2.24,9.44,7.43V42.91h-3.46V41.26a10.41,10.41,0,0,1-6.41,2.12C190.81,43.38,187.15,40.75,187.15,36.93Zm15.19,1.18V35.24a10.47,10.47,0,0,0-6-2.16c-3.93,0-5.9,1.69-5.9,3.77s2.28,3.58,5.7,3.58A9.31,9.31,0,0,0,202.34,38.11Z"/><path class="cls-2" d="M210.75,12.23h3.58V42.91h-3.58Z"/><path class="cls-2" d="M234.47,40.82a9.48,9.48,0,0,1-6.29,2.4,10.09,10.09,0,1,1,0-20.17,8.92,8.92,0,0,1,6.29,2.55V12.23h3.58V42.91h-3.58Zm0-4.83V30.52a6.74,6.74,0,0,0-6.13-4.09,6.58,6.58,0,0,0-6.77,6.69,6.66,6.66,0,0,0,6.8,6.72A6.73,6.73,0,0,0,234.47,36Z"/></g></g></svg>