<?xml version="1.0" encoding="utf-8"?>
<!-- Generator: Adobe Illustrator 24.0.0, SVG Export Plug-In . SVG Version: 6.00 Build 0)  -->
<svg version="1.1" id="Calque_1" xmlns="http://www.w3.org/2000/svg" xmlns:xlink="http://www.w3.org/1999/xlink" x="0px" y="0px"
	 viewBox="0 0 238.1 50.4" style="enable-background:new 0 0 238.1 50.4;" xml:space="preserve">
<style type="text/css">
	.st0{fill:#007A3E;}
	.st1{fill:#1C1A1A;}
</style>
<title>archibald-logo-colorwhite</title>
<path class="st0" d="M10.1,21.1C2.8,26.9,2.9,38,9.2,44.4c7.2,7.2,18.5,7.4,27.3,3.4c8.4-3.8,17.9-11.8,16.5-22
	C51.8,16.1,42.9,9.5,33.7,8.3c-6-0.7-12.1,0-17.8,1.9c-5.6,1.7-11,4.1-14.9,8.5c-0.6,0.6,0.5,1,1,1c0.9,0,1.7-0.3,2.3-1
	c3.2-3.5,7.7-5.5,12.1-6.8c4.5-1.5,9.2-2.1,13.9-1.8c8.4,0.6,16.3,5.7,18.8,14c2.6,9-3.6,16.4-10.8,20.8c-7.5,4.6-17.3,5.3-24.4-0.5
	c-6.7-5.5-8.3-16.8-0.9-22.6c0.6-0.5,0.3-1-0.3-1.2C11.7,20.3,10.8,20.5,10.1,21.1z"/>
<path class="st0" d="M30.7,10.1c8.9-0.7,15,8.9,14,16.9c-1.3,9.2-8.7,15.7-17.5,17.6c-8.3,1.8-18.1,0.5-22-8
	C2,29.4,3.6,21.3,8.3,15.2c3-3.6,6.6-6.6,10.8-8.8C23.9,3.8,29.4,1.6,35,2c1.3,0.1,3.7-1.8,1.4-2c-5.7-0.5-11.2,1.4-16.3,3.8
	c-4.6,2.1-8.8,4.9-12.4,8.4C1.3,18.6-2,27.8,1.3,36.5c1.5,4.1,4.5,7.3,8.5,9.1c5,2.1,10.9,2,16.1,1.1c9.7-1.7,19.2-7.6,21.9-17.7
	c2.8-10.7-5.2-21.6-16.5-20.8C29.5,8.3,28.3,10.3,30.7,10.1z"/>
<path class="st1" d="M80.9,12.5H84l12.3,30.4h-4l-2-5H74.4l-2.1,5h-3.9L80.9,12.5z M75.8,34.5h13l-6.4-16L75.8,34.5z"/>
<path class="st1" d="M98.7,23.3h3.6v1.5c1-1.1,2.5-1.7,4-1.7c3.4-0.1,6.1,2.6,6.2,5.9c0,0.1,0,0.2,0,0.3V30h-3.3
	c0.1-1.9-1.3-3.5-3.2-3.6c-0.1,0-0.2,0-0.3,0c-1.7,0-3.1,1.2-3.5,2.8v13.7h-3.6V23.3z"/>
<path class="st1" d="M113.9,33.1c0-5.6,4.5-10.1,10.1-10.1c0,0,0,0,0,0c2.4,0,4.7,0.8,6.6,2.3l-2,2.8c-2.8-2.4-7-2.2-9.4,0.6
	s-2.2,7,0.6,9.4c1.2,1.1,2.8,1.7,4.4,1.7c1.6,0,3.2-0.6,4.4-1.6l1.9,2.8c-1.8,1.5-4.1,2.3-6.4,2.3C118.4,43.3,113.9,38.7,113.9,33.1
	C113.9,33.1,113.9,33.1,113.9,33.1z"/>
<path class="st1" d="M148.1,31.9c0.1-2.9-2.2-5.3-5.1-5.4c-0.1,0-0.2,0-0.3,0c-2.1,0-4.1,1.1-5.2,2.9v13.5h-3.6V12.2h3.6v13.1
	c1.5-1.5,3.5-2.4,5.6-2.3c4.5,0,8.6,3,8.6,8.3v11.5H148L148.1,31.9z"/>
<path class="st1" d="M156.2,15.8c0-1.2,0.9-2.2,2.1-2.2c0,0,0.1,0,0.1,0c1.2,0,2.2,1,2.2,2.2c0,0,0,0,0,0c0,1.2-1,2.2-2.3,2.2
	C157.1,18.1,156.2,17.1,156.2,15.8C156.2,15.8,156.2,15.8,156.2,15.8z M156.6,23.3h3.6v19.6h-3.6V23.3z"/>
<path class="st1" d="M165.1,12.2h3.6v13c1.7-1.4,3.9-2.2,6.1-2.2c5.6-0.2,10.2,4.2,10.4,9.8s-4.2,10.2-9.8,10.4c-0.2,0-0.4,0-0.6,0
	c-2.2,0-4.4-0.8-6.1-2.2v1.9h-3.6V12.2z M168.7,29.8v6.6c1.2,2.1,3.5,3.5,5.9,3.5c3.7,0.1,6.7-2.8,6.8-6.5c0-0.1,0-0.1,0-0.2
	c0.1-3.6-2.8-6.6-6.5-6.7c-0.1,0-0.2,0-0.3,0C172.2,26.4,169.9,27.7,168.7,29.8z"/>
<path class="st1" d="M187.1,36.9c0-3.8,3.7-6.8,9-6.8c2.2,0,4.3,0.7,6.2,1.8v-1.5c0-2.9-3.5-4.1-6-4.1c-2.3-0.1-4.5,0.6-6.3,2
	l-1.7-2.7c2.3-1.7,5.1-2.6,8-2.6c4.4,0,9.4,2.2,9.4,7.4v12.5h-3.5v-1.7c-1.8,1.4-4.1,2.1-6.4,2.1C190.8,43.4,187.1,40.8,187.1,36.9z
	 M202.3,38.1v-2.9c-1.7-1.3-3.8-2.1-6-2.2c-3.9,0-5.9,1.7-5.9,3.8s2.3,3.6,5.7,3.6C198.4,40.4,200.6,39.6,202.3,38.1z"/>
<path class="st1" d="M210.8,12.2h3.6v30.7h-3.6V12.2z"/>
<path class="st1" d="M234.5,40.8c-1.7,1.5-4,2.4-6.3,2.4c-5.6,0.2-10.2-4.2-10.4-9.8s4.2-10.2,9.8-10.4c0.2,0,0.4,0,0.6,0
	c2.4,0,4.6,0.9,6.3,2.5V12.2h3.6v30.7h-3.6V40.8z M234.5,36v-5.5c-1.1-2.5-3.5-4.1-6.1-4.1c-3.6-0.1-6.7,2.8-6.8,6.4
	c0,0.1,0,0.2,0,0.3c0,3.7,2.9,6.7,6.6,6.7c0.1,0,0.1,0,0.2,0C231,39.8,233.4,38.4,234.5,36L234.5,36z"/>
</svg>
