<svg xmlns="http://www.w3.org/2000/svg" viewBox="0 0 17.1 17.12"><defs><style>.cls-1{fill:#007a3e;fill-rule:evenodd;}</style></defs><title>icone-telephone</title><g id="Calque_2" data-name="Calque 2"><g id="contenu"><path class="cls-1" d="M.28,5.18A4.8,4.8,0,0,1,0,3.38,2.05,2.05,0,0,1,.41,2.29L2.34.1s.51-.38,1.22.33S6.38,3.57,6.38,3.57a1.11,1.11,0,0,1,.06,1.54L5.1,6.59s-.2.13.25.9a30.21,30.21,0,0,0,4.24,4.3c.77.38.9.25.9.25s.7-.64,1.54-1.34a1,1,0,0,1,1.47,0l3.15,2.88c.77.65.32,1.22.32,1.22l-2.12,1.86a2.94,2.94,0,0,1-1.09.45,6.71,6.71,0,0,1-1.86-.25C7.66,15.44,1.63,9.41.28,5.18Z"/></g></g></svg>