<svg xmlns="http://www.w3.org/2000/svg" viewBox="0 0 100.71 100.71"><defs><style>.cls-1{fill:#fff;}</style></defs><g id="Calque_2" data-name="Calque 2"><g id="Calque_1-2" data-name="Calque 1"><path class="cls-1" d="M66.09,28.3c-1.37,1.31-3.53,2.16-6.5,2.54a12.78,12.78,0,0,1,1.84,7.34,10.57,10.57,0,0,1-3.92,8.68A15.23,15.23,0,0,1,47.59,50a22.56,22.56,0,0,1-4.52-.42c-3,.19-4.52,1.36-4.52,3.53a2.85,2.85,0,0,0,1.52,2.68,10.33,10.33,0,0,0,4.84.85h7.91q5.72,0,8.5,2.33t2.79,8a13.78,13.78,0,0,1-2,7.27,14.13,14.13,0,0,1-5.82,5.26,19.94,19.94,0,0,1-9.11,1.94q-8,0-11.76-2.4a7.26,7.26,0,0,1-3.78-6.35,5.8,5.8,0,0,1,1.84-4.24,6.79,6.79,0,0,1,5-1.84,23.8,23.8,0,0,1,2.62.29,7.76,7.76,0,0,0-2.19,5.5A7.5,7.5,0,0,0,41,77.72c1.42,1.5,3.72,2.26,6.92,2.26a16.88,16.88,0,0,0,7.45-1.59,12.77,12.77,0,0,0,5-4.13A9,9,0,0,0,62.21,69a4.81,4.81,0,0,0-1.91-4.27q-1.9-1.31-6.78-1.3H44.91q-4.95,0-7.45-2A6.82,6.82,0,0,1,35,55.76a7.26,7.26,0,0,1,1.45-4.48,6.45,6.45,0,0,1,3.71-2.51Q34,46.16,34,38.18a10.68,10.68,0,0,1,3.89-8.75,14.86,14.86,0,0,1,9.74-3.18q7.41,0,10.73,3.1a5.61,5.61,0,0,0,3-1.3,2.93,2.93,0,0,0,1-2.16,2.23,2.23,0,0,0-.64-1.72,2.1,2.1,0,0,0-1.48-.61,3.73,3.73,0,0,1,1.16-2.71,3.81,3.81,0,0,1,2.79-1.17A4.07,4.07,0,0,1,67,20.74a3.71,3.71,0,0,1,1.13,2.82A6.38,6.38,0,0,1,66.09,28.3Zm-11.3,8.11A10.63,10.63,0,0,0,53,29.78a6.38,6.38,0,0,0-5.4-2.33q-7,0-7,9v3.46a11.07,11.07,0,0,0,1.73,6.57,6.05,6.05,0,0,0,5.26,2.4,6.32,6.32,0,0,0,5.4-2.4,10.72,10.72,0,0,0,1.8-6.57Z"/><path class="cls-1" d="M50.36,100.71a50.36,50.36,0,1,1,50.35-50.35A50.41,50.41,0,0,1,50.36,100.71Zm0-96.36a46,46,0,1,0,46,46A46.06,46.06,0,0,0,50.36,4.35Z"/></g></g></svg>