<svg xmlns="http://www.w3.org/2000/svg" viewBox="0 0 18.15 12.98"><defs><style>.cls-1{fill:#007a3e;}</style></defs><title>icone-email</title><g id="Calque_2" data-name="Calque 2"><g id="contenu"><path class="cls-1" d="M1.3,11v0L5.65,7l.45-.41L1.3,2.09v0L.06.9A1.39,1.39,0,0,0,0,1.3V11.68a1.39,1.39,0,0,0,.06.4Z"/><path class="cls-1" d="M9.35,7.25,17.12,0H1L8.81,7.22A.64.64,0,0,0,9.35,7.25Z"/><path class="cls-1" d="M16.85,2.09,12.36,6.26,18.11,12a1.24,1.24,0,0,0,0-.33V1.3a1.39,1.39,0,0,0-.06-.4L16.85,2.05Z"/><path class="cls-1" d="M10.37,8.09a1.94,1.94,0,0,1-2.64,0L7,7.44,1.05,13h15.8a1.27,1.27,0,0,0,.34,0l-1.26-1.25L11.4,7.14Z"/></g></g></svg>