<svg xmlns="http://www.w3.org/2000/svg" viewBox="0 0 197.91 69.42"><defs><style>.cls-1{fill:#fff;}</style></defs><g id="Calque_2" data-name="Calque 2"><g id="Calque_1-2" data-name="Calque 1"><path class="cls-1" d="M46.49,19.19A7.78,7.78,0,0,1,42,20.94,8.94,8.94,0,0,1,43.27,26a7.34,7.34,0,0,1-2.71,6,10.56,10.56,0,0,1-6.86,2.19,15,15,0,0,1-3.12-.29c-2.08.13-3.12.94-3.12,2.44a2,2,0,0,0,1.05,1.85,7.16,7.16,0,0,0,3.34.59h5.46q4,0,5.88,1.61t1.93,5.51a9.51,9.51,0,0,1-1.39,5,9.7,9.7,0,0,1-4,3.63,13.61,13.61,0,0,1-6.29,1.34q-5.5,0-8.12-1.66a5,5,0,0,1-2.61-4.39A4,4,0,0,1,24,47a4.65,4.65,0,0,1,3.46-1.27,16.19,16.19,0,0,1,1.81.19,5.4,5.4,0,0,0-1.52,3.81,5.16,5.16,0,0,0,1.47,3.66c1,1,2.57,1.56,4.78,1.56a11.65,11.65,0,0,0,5.14-1.1A8.7,8.7,0,0,0,42.58,51a6.22,6.22,0,0,0,1.22-3.61,3.32,3.32,0,0,0-1.31-3c-.88-.61-2.44-.91-4.69-.91H31.85a8.29,8.29,0,0,1-5.15-1.34,4.73,4.73,0,0,1-1.73-4,5,5,0,0,1,1-3.09,4.45,4.45,0,0,1,2.56-1.73Q24.28,31.53,24.29,26A7.38,7.38,0,0,1,27,20a10.24,10.24,0,0,1,6.73-2.2q5.13,0,7.42,2.15a3.87,3.87,0,0,0,2.05-.9,2,2,0,0,0,.68-1.49,1.59,1.59,0,0,0-.44-1.2,1.45,1.45,0,0,0-1-.41,2.6,2.6,0,0,1,.8-1.88,2.63,2.63,0,0,1,1.93-.81,2.81,2.81,0,0,1,2,.74,2.54,2.54,0,0,1,.78,1.95A4.39,4.39,0,0,1,46.49,19.19ZM38.68,24.8a7.36,7.36,0,0,0-1.24-4.59A4.45,4.45,0,0,0,33.7,18.6q-4.83,0-4.83,6.2v2.39a7.62,7.62,0,0,0,1.2,4.54,4.19,4.19,0,0,0,3.63,1.65,4.39,4.39,0,0,0,3.74-1.65,7.42,7.42,0,0,0,1.24-4.54Z"/><path class="cls-1" d="M34.71,69.42A34.71,34.71,0,1,1,69.42,34.71,34.75,34.75,0,0,1,34.71,69.42Zm0-66.58A31.87,31.87,0,1,0,66.58,34.71,31.91,31.91,0,0,0,34.71,2.84Z"/><path class="cls-1" d="M76.88,21.53l1.19-.17V13.59l-1.19-.17v-.34h2.89v1.31a3,3,0,0,1,2.41-1.46,2,2,0,0,1,1.13.33,1.06,1.06,0,0,1,.49.94,1,1,0,0,1-.28.74,1,1,0,0,1-.77.3,1.07,1.07,0,0,1-.88-.43.85.85,0,0,0,.19-.51.6.6,0,0,0-.2-.46.73.73,0,0,0-.52-.18,1.14,1.14,0,0,0-.73.33,5.21,5.21,0,0,0-.84,1v6.34l1.35.17v.34H76.88Z"/><path class="cls-1" d="M86.77,21.47a4.19,4.19,0,0,1-1.61-1.6,4.78,4.78,0,0,1-.59-2.39,4.75,4.75,0,0,1,.58-2.39,4.23,4.23,0,0,1,1.58-1.59A4.37,4.37,0,0,1,89,12.93a3.89,3.89,0,0,1,1.91.47,3.44,3.44,0,0,1,1.33,1.32,4,4,0,0,1,.49,1.93H86.43v1.68a4,4,0,0,0,.67,2.41,2.26,2.26,0,0,0,2,.93A3.41,3.41,0,0,0,91.12,21a2.73,2.73,0,0,0,1.1-1.72h.39a3.17,3.17,0,0,1-1.2,2,3.76,3.76,0,0,1-2.36.75A4.59,4.59,0,0,1,86.77,21.47Zm4-5.25a4.15,4.15,0,0,0-.46-2.2,1.56,1.56,0,0,0-1.42-.72,2.13,2.13,0,0,0-1.77.8,3.82,3.82,0,0,0-.71,2.12Z"/><path class="cls-1" d="M94.83,21.47a2.06,2.06,0,0,1-.69-1.69,2.32,2.32,0,0,1,1.34-2.26,6.8,6.8,0,0,1,3.1-.67h1.14V15.54a3.75,3.75,0,0,0-.19-1.36,1.21,1.21,0,0,0-.61-.68,2.57,2.57,0,0,0-1.1-.2,1.88,1.88,0,0,0-1.19.32,1,1,0,0,0-.39.84.62.62,0,0,0,.48.64,1.11,1.11,0,0,1-1.09,1.07,1.09,1.09,0,0,1-.76-.26,1.07,1.07,0,0,1-.29-.81,1.81,1.81,0,0,1,1-1.58A4.77,4.77,0,0,1,98,12.93q3.41,0,3.4,3v4.85a.86.86,0,0,0,.16.57.58.58,0,0,0,.47.2.56.56,0,0,0,.45-.2.74.74,0,0,0,.17-.53H103a1.18,1.18,0,0,1-.38.93,1.54,1.54,0,0,1-1.06.34,2,2,0,0,1-1.32-.45,1.78,1.78,0,0,1-.55-1.4,3,3,0,0,1-1.25,1.36,3.58,3.58,0,0,1-1.85.49A2.74,2.74,0,0,1,94.83,21.47ZM98.49,21a2.29,2.29,0,0,0,.82-.79A2.57,2.57,0,0,0,99.72,19V17.22H98.58a3,3,0,0,0-2.07.62,2.21,2.21,0,0,0-.69,1.74,1.67,1.67,0,0,0,.44,1.32,1.83,1.83,0,0,0,1.29.39A1.93,1.93,0,0,0,98.49,21Z"/><path class="cls-1" d="M103.32,21.87v-.34l1.27-.17V8.81l-1.27-.17V8.3h3V21.36l1.19.17v.34Z"/><path class="cls-1" d="M114.82,21.47a4.19,4.19,0,0,1-1.61-1.6,4.68,4.68,0,0,1-.59-2.39,4.75,4.75,0,0,1,.58-2.39,4.23,4.23,0,0,1,1.58-1.59,4.37,4.37,0,0,1,2.22-.57,3.89,3.89,0,0,1,1.91.47,3.44,3.44,0,0,1,1.33,1.32,4,4,0,0,1,.49,1.93h-6.25v1.68a4,4,0,0,0,.67,2.41,2.26,2.26,0,0,0,1.95.93,3.41,3.41,0,0,0,2.07-.66,2.73,2.73,0,0,0,1.1-1.72h.39a3.17,3.17,0,0,1-1.2,2,3.76,3.76,0,0,1-2.36.75A4.59,4.59,0,0,1,114.82,21.47Zm4-5.25a4.15,4.15,0,0,0-.46-2.2A1.56,1.56,0,0,0,117,13.3a2.13,2.13,0,0,0-1.77.8,3.75,3.75,0,0,0-.71,2.12Z"/><path class="cls-1" d="M123.15,21.45a1.78,1.78,0,0,1-.93-1.55,1.12,1.12,0,0,1,.26-.77.92.92,0,0,1,.71-.28,1,1,0,0,1,.58.17,1,1,0,0,1,.34.48,1.26,1.26,0,0,0-.38.86,1.16,1.16,0,0,0,.48.92,1.93,1.93,0,0,0,1.27.39,2.92,2.92,0,0,0,1.75-.49,1.51,1.51,0,0,0,.68-1.29.89.89,0,0,0-.29-.72,4.45,4.45,0,0,0-1.12-.54l-2.56-.93a2,2,0,0,1-1.51-2,2.56,2.56,0,0,1,.83-2,3.24,3.24,0,0,1,2.29-.77,3.71,3.71,0,0,1,2.06.55,1.77,1.77,0,0,1,.86,1.57,1,1,0,0,1-.22.65.73.73,0,0,1-.58.25.9.9,0,0,1-.59-.2.66.66,0,0,1-.23-.53.94.94,0,0,0,.31-.36,1.13,1.13,0,0,0,.08-.47.91.91,0,0,0-.41-.78,2.14,2.14,0,0,0-1.28-.31,3.25,3.25,0,0,0-1.28.23,1.91,1.91,0,0,0-.81.6,1.31,1.31,0,0,0-.27.77.77.77,0,0,0,.3.64,3.89,3.89,0,0,0,1.09.53l2.38.85a2.65,2.65,0,0,1,1.25.85,2.23,2.23,0,0,1,.43,1.4,2.87,2.87,0,0,1-.78,2.06,3.19,3.19,0,0,1-2.38.81A4.33,4.33,0,0,1,123.15,21.45Z"/><path class="cls-1" d="M131.66,21.48A2.21,2.21,0,0,1,131,19.7V13.59l-1.2-.17v-.34H131V11.67l1.7-.42v1.83h2.21v.34l-2.21.17v6.08c0,1.2.43,1.79,1.29,1.79a1.53,1.53,0,0,0,.52-.08,2.5,2.5,0,0,0,.39-.17l.18-.12.22.27a2.63,2.63,0,0,1-1.83.68A2.75,2.75,0,0,1,131.66,21.48Z"/><path class="cls-1" d="M136.85,21.47a2,2,0,0,1-.7-1.69,2.34,2.34,0,0,1,1.34-2.26,6.84,6.84,0,0,1,3.11-.67h1.14V15.54a3.72,3.72,0,0,0-.2-1.36,1.2,1.2,0,0,0-.6-.68,2.57,2.57,0,0,0-1.1-.2,1.86,1.86,0,0,0-1.19.32,1,1,0,0,0-.39.84.62.62,0,0,0,.47.64,1.06,1.06,0,0,1-.32.75,1.05,1.05,0,0,1-.76.32,1.12,1.12,0,0,1-.77-.26,1.07,1.07,0,0,1-.29-.81,1.8,1.8,0,0,1,1-1.58,4.72,4.72,0,0,1,2.46-.59q3.39,0,3.39,3v4.85a.92.92,0,0,0,.16.57.59.59,0,0,0,.47.2.58.58,0,0,0,.46-.2.78.78,0,0,0,.17-.53H145a1.14,1.14,0,0,1-.38.93,1.52,1.52,0,0,1-1.06.34,2,2,0,0,1-1.31-.45,1.75,1.75,0,0,1-.55-1.4,3.1,3.1,0,0,1-1.25,1.36,3.59,3.59,0,0,1-1.86.49A2.72,2.72,0,0,1,136.85,21.47Zm3.66-.45a2.37,2.37,0,0,0,.82-.79,2.8,2.8,0,0,0,.41-1.24V17.22H140.6a3,3,0,0,0-2.08.62,2.21,2.21,0,0,0-.69,1.74,1.7,1.7,0,0,0,.44,1.32,1.86,1.86,0,0,0,1.29.39A2,2,0,0,0,140.51,21Z"/><path class="cls-1" d="M147.17,21.48a2.21,2.21,0,0,1-.67-1.78V13.59l-1.2-.17v-.34h1.2V11.67l1.7-.42v1.83h2.21v.34l-2.21.17v6.08c0,1.2.43,1.79,1.29,1.79a1.53,1.53,0,0,0,.52-.08,2.5,2.5,0,0,0,.39-.17l.18-.12.22.27A2.64,2.64,0,0,1,149,22,2.74,2.74,0,0,1,147.17,21.48Z"/><path class="cls-1" d="M153.63,21.47a4.13,4.13,0,0,1-1.61-1.6,4.68,4.68,0,0,1-.59-2.39,4.75,4.75,0,0,1,.58-2.39,4.23,4.23,0,0,1,1.58-1.59,4.36,4.36,0,0,1,2.21-.57,3.93,3.93,0,0,1,1.92.47A3.35,3.35,0,0,1,159,14.72a4,4,0,0,1,.5,1.93h-6.25v1.68a4,4,0,0,0,.67,2.41,2.26,2.26,0,0,0,1.95.93A3.41,3.41,0,0,0,158,21a2.77,2.77,0,0,0,1.1-1.72h.39a3.15,3.15,0,0,1-1.21,2,3.71,3.71,0,0,1-2.35.75A4.59,4.59,0,0,1,153.63,21.47Zm4-5.25a4.15,4.15,0,0,0-.46-2.2,1.56,1.56,0,0,0-1.42-.72,2.13,2.13,0,0,0-1.77.8,3.68,3.68,0,0,0-.71,2.12Z"/><path class="cls-1" d="M85.3,33.32a2.63,2.63,0,0,1-1.56.61,3.05,3.05,0,0,1,.45,1.77,2.55,2.55,0,0,1-1,2.09,3.63,3.63,0,0,1-2.38.76,5.25,5.25,0,0,1-1.09-.1c-.72,0-1.08.33-1.08.85a.68.68,0,0,0,.36.64,2.46,2.46,0,0,0,1.16.2h1.9a3.17,3.17,0,0,1,2,.56,2.39,2.39,0,0,1,.67,1.92,3.31,3.31,0,0,1-.48,1.75A3.43,3.43,0,0,1,83,45.63a4.66,4.66,0,0,1-2.19.47,5.36,5.36,0,0,1-2.83-.58A1.74,1.74,0,0,1,77,44a1.37,1.37,0,0,1,.45-1,1.59,1.59,0,0,1,1.2-.44,4.91,4.91,0,0,1,.63.07,1.86,1.86,0,0,0-.53,1.32,1.78,1.78,0,0,0,.51,1.27,2.19,2.19,0,0,0,1.66.54,4,4,0,0,0,1.79-.38,3,3,0,0,0,1.22-1,2.21,2.21,0,0,0,.42-1.26,1.14,1.14,0,0,0-.46-1,3,3,0,0,0-1.63-.32H80.21a2.92,2.92,0,0,1-1.79-.46,1.66,1.66,0,0,1-.6-1.39,1.76,1.76,0,0,1,.35-1.07,1.57,1.57,0,0,1,.89-.61,2.48,2.48,0,0,1-1.48-2.54,2.6,2.6,0,0,1,.94-2.11,3.61,3.61,0,0,1,2.34-.76,3.68,3.68,0,0,1,2.58.75,1.31,1.31,0,0,0,.71-.32.68.68,0,0,0,.24-.51.57.57,0,0,0-.15-.42.5.5,0,0,0-.36-.14.9.9,0,0,1,.28-.66,1,1,0,0,1,.67-.28,1,1,0,0,1,.7.26.88.88,0,0,1,.27.68A1.5,1.5,0,0,1,85.3,33.32Zm-2.71,2a2.53,2.53,0,0,0-.43-1.59,1.55,1.55,0,0,0-1.3-.56c-1.12,0-1.68.72-1.68,2.15v.84a2.68,2.68,0,0,0,.41,1.57,1.45,1.45,0,0,0,1.27.58,1.51,1.51,0,0,0,1.3-.58,2.54,2.54,0,0,0,.43-1.57Z"/><path class="cls-1" d="M88.61,41.37A4.08,4.08,0,0,1,87,39.76,5.1,5.1,0,0,1,87,35a4.19,4.19,0,0,1,1.58-1.6,4.63,4.63,0,0,1,4.45,0A4.14,4.14,0,0,1,94.65,35a5.17,5.17,0,0,1,0,4.76,4,4,0,0,1-1.59,1.61,4.63,4.63,0,0,1-4.45,0Zm4.12-.72a4.2,4.2,0,0,0,.64-2.42v-1.7a4.18,4.18,0,0,0-.64-2.42,2.43,2.43,0,0,0-3.79,0,4.18,4.18,0,0,0-.63,2.42v1.7a4.2,4.2,0,0,0,.63,2.42,2.41,2.41,0,0,0,3.79,0Z"/><path class="cls-1" d="M96.3,41.77v-.34l1.27-.17V28.71l-1.27-.17V28.2h3V41.26l1.19.17v.34Z"/><path class="cls-1" d="M101.27,41.43l1.19-.17V33.49l-1.19-.17V33h1.19V31.56a4.44,4.44,0,0,1,.66-2.58,2.57,2.57,0,0,1,2.26-.95,2.69,2.69,0,0,1,1.65.48,1.54,1.54,0,0,1,.66,1.32,1.26,1.26,0,0,1-.28.83,1,1,0,0,1-.76.32,1.11,1.11,0,0,1-1.07-1.07.75.75,0,0,0,.58-.8.69.69,0,0,0-.23-.5.79.79,0,0,0-.55-.21,1,1,0,0,0-.94.62,5.16,5.16,0,0,0-.28,2V33h2.2v.34l-2.2.17v7.77l2,.17v.34h-4.91Z"/><path class="cls-1" d="M113.54,41.37A4,4,0,0,1,112,39.76a4.77,4.77,0,0,1-.58-2.38,4.68,4.68,0,0,1,.62-2.44,4.07,4.07,0,0,1,1.62-1.57,4.46,4.46,0,0,1,2.15-.54,4.58,4.58,0,0,1,1.77.33,3,3,0,0,1,1.26.93,2.11,2.11,0,0,1,.47,1.34,1.17,1.17,0,0,1-.29.85,1,1,0,0,1-.76.3,1,1,0,0,1-1.07-1.07,1,1,0,0,0,.36-.37,1.32,1.32,0,0,0-.4-1.54,2.14,2.14,0,0,0-1.34-.4,2.2,2.2,0,0,0-1.87.88,4,4,0,0,0-.65,2.45v1.7a4.2,4.2,0,0,0,.63,2.42,2.17,2.17,0,0,0,1.89.92,3.3,3.3,0,0,0,2-.65,2.77,2.77,0,0,0,1.06-1.73h.39a3.29,3.29,0,0,1-1.18,2,3.61,3.61,0,0,1-2.29.74A4.42,4.42,0,0,1,113.54,41.37Z"/><path class="cls-1" d="M122.1,41.33a2.25,2.25,0,0,1-.7-1.81v-6l-1.19-.17V33h2.88v6.5a2.26,2.26,0,0,0,.36,1.36,1.27,1.27,0,0,0,1.1.49,2.59,2.59,0,0,0,1.51-.51,6,6,0,0,0,1.28-1.29v-6l-1.19-.17V33H129v8.28l1.19.17v.34h-2.88V40.14a4.53,4.53,0,0,1-1.47,1.33,3.81,3.81,0,0,1-1.84.47A2.83,2.83,0,0,1,122.1,41.33Z"/><path class="cls-1" d="M131,46.24l1.19-.17V33.51L131,33.34V33h2.89v1.78A3.49,3.49,0,0,1,135,33.35a2.86,2.86,0,0,1,1.73-.52,3.93,3.93,0,0,1,2.12.57A3.85,3.85,0,0,1,140.3,35a5.93,5.93,0,0,1,0,4.81,3.76,3.76,0,0,1-1.42,1.58,3.93,3.93,0,0,1-2.12.56,2.92,2.92,0,0,1-1.73-.51A3.59,3.59,0,0,1,133.89,40v6.06l1.59.17v.34H131Zm7.94-8V36.55c0-2.2-.78-3.29-2.35-3.29a2.29,2.29,0,0,0-1.36.43,3,3,0,0,0-1,1.16,3.67,3.67,0,0,0-.37,1.58v1.81a3.69,3.69,0,0,0,.35,1.62,3,3,0,0,0,1,1.21,2.33,2.33,0,0,0,1.39.45C138.16,41.52,138.94,40.43,138.94,38.24Z"/><path class="cls-1" d="M83.72,56.57a1.4,1.4,0,0,0,.06-.28l.06-.3c.08-.3.19-.45.31-.45s.16.08.16.22A4.07,4.07,0,0,1,84,57.21c-.26.69-.56,1-.88,1a2.2,2.2,0,0,1-1-.3l-.4,2.24c-.2.67-.53,1-1,1s-.91-.55-1.23-1.65c-.29,1.35-.7,2-1.21,2q-1.11,0-1.11-2.82c0-.11,0-.34,0-.68s.07-.82.12-1.42.1-1.06.14-1.37a2.3,2.3,0,0,1,.07-.5.39.39,0,0,1,.38-.27,1,1,0,0,1,.58.35,12.2,12.2,0,0,0-.74,4.41q0,1.71.66,1.71a5.06,5.06,0,0,0,.87-3c0-.13,0-.29,0-.47s0-.4.06-.66,0-.47.07-.65a4.4,4.4,0,0,0,0-.48.87.87,0,0,0,0-.3l-.06-.24a.62.62,0,0,1,.5-.2c.3,0,.45.13.45.38a1,1,0,0,1,0,.21l-.06.27c0,.1,0,.19-.07.28a.58.58,0,0,0,0,.19c-.06.56-.1,1-.13,1.37s0,.6,0,.74a15.38,15.38,0,0,0,.29,1.92.44.44,0,0,0,.44.32c.23,0,.48-.62.75-1.85.06-.37.12-.67.16-.92a3.92,3.92,0,0,0,.06-.57,5.76,5.76,0,0,0-.12-.91c0-.22,0-.4-.07-.56a3,3,0,0,1,0-.39v-.7a1.44,1.44,0,0,1,0-.35c0-.36.15-.58.34-.66a.8.8,0,0,1,.42.6l.1,2.92c0,.25.18.37.51.37S83.55,57.27,83.72,56.57Z"/><path class="cls-1" d="M89.12,58.5c-.14.54-.27,1-.36,1.29a4.53,4.53,0,0,1-.22.65c-.24.58-.54.87-.89.87-.79,0-1.23-.76-1.31-2.26,0-1.06,0-2.14,0-3.23a37.84,37.84,0,0,0-1.51,5.79.6.6,0,0,1-.28.08q-.81,0-.81-3.27,0-.83.12-2c.08-.81.2-1.77.35-2.87s.26-2.06.34-2.87.12-1.5.12-2a3.11,3.11,0,0,0,0-.32q0-.15,0-.24c.09-.22.31-.32.66-.31s.41.15.41.37a3.51,3.51,0,0,1-.18.86c0,.14-.06.27-.08.4l-.09.37c-.3,2-.54,3.67-.7,5.12a34.14,34.14,0,0,0-.24,3.62s0,.11,0,.42.08.77.15,1.4c.33-.94.64-1.92.91-2.93s.5-2.08.7-3.2c0-.36.19-.54.4-.54a2,2,0,0,1,.87.54,26.83,26.83,0,0,0-.54,4.78c0,1.09.21,1.63.64,1.63s.82-.91,1.33-2.72c.1-.31.18-.62.26-.93s.16-.62.22-.92.15-.45.27-.45.18.09.18.26A23.12,23.12,0,0,1,89.12,58.5Z"/><path class="cls-1" d="M93.64,55.78a11.26,11.26,0,0,1-.31,1.35,13,13,0,0,1-1.51,4,1.34,1.34,0,0,1-1.06.59,1.54,1.54,0,0,1-1.37-1A3.78,3.78,0,0,1,89,59.11c0-.42,0-.85.06-1.31s.11-.94.2-1.45c.26-1.47.63-2.2,1.11-2.2a1.22,1.22,0,0,1,.79.3.94.94,0,0,1,.36.73,8,8,0,0,1-.87,3.34,12,12,0,0,1-.84,1.56,1.33,1.33,0,0,0,.34.78.89.89,0,0,0,.69.42c.64,0,1.37-1.53,2.17-4.59a3.82,3.82,0,0,1,.38-1.15Q93.64,55.54,93.64,55.78ZM91,55.4c0-.46-.1-.68-.29-.68s-.18.08-.24.26a13.9,13.9,0,0,0-.74,4.35c.31-.19.6-.79.88-1.81A8.07,8.07,0,0,0,91,55.4Z"/><path class="cls-1" d="M96,61.55a1.22,1.22,0,0,1-1-.71,2.93,2.93,0,0,1-.21-1.23c0-.45,0-1.08,0-1.87l0-1.61c0-.33-.32-.66-1-1a10.12,10.12,0,0,1-.49,2.16,1.25,1.25,0,0,1-.1.21l-.1.21-.26-.08a6.45,6.45,0,0,1,.24-1.27,5.3,5.3,0,0,0,.26-1.43,2.42,2.42,0,0,0-.16-.69,2.88,2.88,0,0,1-.16-.7c0-.67.17-1,.51-1s.41.21.42.62a1.26,1.26,0,0,1,0,.28c0,.1,0,.21,0,.35s0,.29,0,.4,0,.19,0,.24.28.35.84.65.87.64.87,1c0,.22,0,.5,0,.83s-.07.72-.12,1.16-.09.81-.12,1.14,0,.61,0,.84c0,.63.19.94.58.94.23,0,.59-.7,1.07-2.11a16,16,0,0,0,.81-2.9c0-.31.13-.47.28-.47s.16.1.16.3a13.29,13.29,0,0,1-.79,3.07Q96.48,61.55,96,61.55Z"/><path class="cls-1" d="M102,55.78a12.42,12.42,0,0,1-.3,1.35,13.29,13.29,0,0,1-1.51,4,1.36,1.36,0,0,1-1.07.59,1.55,1.55,0,0,1-1.37-1,3.78,3.78,0,0,1-.41-1.71c0-.42,0-.85.06-1.31s.11-.94.21-1.45c.25-1.47.62-2.2,1.1-2.2a1.2,1.2,0,0,1,.79.3.94.94,0,0,1,.36.73A8.1,8.1,0,0,1,99,58.52a12.09,12.09,0,0,1-.85,1.56,1.33,1.33,0,0,0,.34.78.91.91,0,0,0,.69.42c.64,0,1.37-1.53,2.17-4.59a3.63,3.63,0,0,1,.39-1.15C101.89,55.54,102,55.62,102,55.78ZM99.3,55.4c0-.46-.1-.68-.28-.68s-.19.08-.24.26A13.64,13.64,0,0,0,98,59.33a3.35,3.35,0,0,0,.89-1.81A8.41,8.41,0,0,0,99.3,55.4Z"/><path class="cls-1" d="M109.27,56.11a14.55,14.55,0,0,1-.36,3.34c-.38,1.59-1,2.38-1.85,2.38a.83.83,0,0,1-.67-.4,1.6,1.6,0,0,0-.44-.55,17.27,17.27,0,0,0-.29,2.17q-.09,1.16-.09,2.49a9,9,0,0,0,.08,1.49,3.56,3.56,0,0,0,.26.86c0,.06-.1.09-.28.09q-.69,0-.69-2.4,0-1,.12-2.37c.08-.93.2-2,.34-3.28s.26-2.33.33-3.21.09-1.58.08-2.11a.26.26,0,0,1-.1-.2c0-.17.1-.26.32-.26s.38.19.38.57a2.75,2.75,0,0,1,0,.34,2.67,2.67,0,0,0,0,.32v.2a1.41,1.41,0,0,1,0,.18v1c.14-.4.32-.88.55-1.43.33-.77.59-1.15.78-1.15a1.42,1.42,0,0,1,1.29.55A2.72,2.72,0,0,1,109.27,56.11ZM108,54.57c-.17,0-.33.17-.46.49l-.44,1.17a11,11,0,0,0-1,3.4c.27.15.4.27.4.37a.25.25,0,0,1-.09.15.24.24,0,0,0-.09.17,1.26,1.26,0,0,0,.18.66.65.65,0,0,0,.57.37q.7,0,1.17-1.68a8.61,8.61,0,0,0,.36-2.27v-.25a1.1,1.1,0,0,0,0-.18v-.82C108.65,55.1,108.43,54.57,108,54.57Z"/><path class="cls-1" d="M114,61.51q-.75,0-1.23-1.47c-.35,1.24-.8,1.87-1.35,1.87-.79,0-1.17-1-1.13-2.94a16.75,16.75,0,0,1,.5-2.62q.58-2.1,1-2.1c.59,0,1,.16,1.13.47l.36.72.71.24a15,15,0,0,0-.69,3.61,3.26,3.26,0,0,0,.08,1c.11.47.28.7.51.7.45,0,1.08-1.65,1.87-5,.08-.31.18-.47.28-.47s.16.1.16.3a12.6,12.6,0,0,1-.74,3C114.86,60.63,114.37,61.51,114,61.51Zm-1.23-5.65c0-.61-.22-.92-.5-.92s-.43.32-.61,1c0,.15-.11.35-.18.59l-.24.83a11.9,11.9,0,0,0-.32,3A1.39,1.39,0,0,0,111,61c.12.26.27.39.46.39a3.16,3.16,0,0,0,.81-1.56c.1-.35.2-.67.28-1a6.5,6.5,0,0,0,.16-.82l.24-1.85Z"/><path class="cls-1" d="M117.68,59.85a3,3,0,0,1-.29,1.29,1.11,1.11,0,0,1-1,.69,1.35,1.35,0,0,1-1.05-.5.92.92,0,0,1-.32-.65c0-.25,0-.4.16-.42s.14.1.14.32c.23.51.47.77.74.77.62,0,.93-.53.93-1.58a8.65,8.65,0,0,0-.4-2.11c-.15-.49-.29-.91-.43-1.27,0,.19-.12.42-.21.71l-.29,1c-.13.46-.31.69-.52.69l-.16,0a20.28,20.28,0,0,0,.82-4.46.47.47,0,0,1,.53-.54c.39,0,.58.13.58.38a1.06,1.06,0,0,1,0,.2c0,.1,0,.2-.07.31s-.05.21-.07.31a1.29,1.29,0,0,0,0,.25,9.19,9.19,0,0,0,.48,2.36A8.11,8.11,0,0,1,117.68,59.85Z"/><path class="cls-1" d="M121,59.85a3,3,0,0,1-.28,1.29,1.13,1.13,0,0,1-1,.69,1.38,1.38,0,0,1-1-.5,1,1,0,0,1-.32-.65c0-.25.05-.4.16-.42s.14.1.14.32c.23.51.48.77.75.77.62,0,.93-.53.93-1.58a8.79,8.79,0,0,0-.41-2.11c-.15-.49-.29-.91-.42-1.27,0,.19-.13.42-.21.71s-.19.63-.29,1-.31.69-.53.69l-.16,0a20.47,20.47,0,0,0,.83-4.46c0-.36.17-.54.52-.54s.58.13.58.38a1.06,1.06,0,0,1,0,.2c0,.1,0,.2-.07.31s0,.21-.07.31a1.29,1.29,0,0,0,0,.25,8.88,8.88,0,0,0,.49,2.36A8.38,8.38,0,0,1,121,59.85Z"/><path class="cls-1" d="M125.47,55.82a15,15,0,0,1-.7,2.81c-.35,1.1-.57,1.76-.67,2-.26.59-.59.89-1,.89a1,1,0,0,1-.93-.73,3.61,3.61,0,0,1-.22-1.27c0-.24,0-.54,0-.91s.07-.79.12-1.28.09-.94.12-1.3,0-.68,0-.92a.52.52,0,0,1,.4-.14c.35,0,.53.09.53.28s-.07.26-.11.45-.11.44-.17.74a15.35,15.35,0,0,0-.39,3.12c0,.9.2,1.35.61,1.35.18,0,.41-.33.68-1,0,0,.24-.69.67-2,.06-.22.14-.47.22-.77s.17-.63.26-1,.18-.49.28-.49S125.47,55.64,125.47,55.82Zm-1.65-5.46c0,.5-.17.75-.5.75a.78.78,0,0,1-.57-.26.86.86,0,0,1-.24-.59.64.64,0,0,1,.21-.42.58.58,0,0,1,.42-.22C123.59,49.62,123.82,49.87,123.82,50.36Z"/><path class="cls-1" d="M130.45,55.72a5.44,5.44,0,0,1-.52,2.1c-.31.71-.72,1.07-1.23,1.07a3.78,3.78,0,0,1-.71-.24c0,.14-.06.31-.1.5s-.09.4-.14.62-.2.57-.29.79a4.5,4.5,0,0,1-.23.48,1.17,1.17,0,0,1-1,.65q-1.47,0-1.47-3a6.9,6.9,0,0,1,.32-2.58v0s0-.09,0-.18,0-.17,0-.23V55.6a.43.43,0,0,1,.12-.28,1.26,1.26,0,0,0,.08-.3l.12-.55c.1-.45.33-.68.69-.68a1.82,1.82,0,0,1,1.09.44,2.07,2.07,0,0,1,.74.91,14.07,14.07,0,0,1,.16,2.92.85.85,0,0,0,.51.22,1.1,1.1,0,0,0,1-.78,8.07,8.07,0,0,0,.43-1.6q.08-.36.24-.36A.16.16,0,0,1,130.45,55.72Zm-3,3c0-.15,0-.33,0-.55s-.07-.46-.12-.74a7,7,0,0,1-.12-.74,3.79,3.79,0,0,1,0-.53q0-.15,0-.45c0-.2,0-.35,0-.44,0-.47-.22-.71-.65-.71-.28,0-.53.64-.74,1.9a14.12,14.12,0,0,0-.31,2.48c0,1.45.3,2.17.89,2.17.15,0,.34-.26.58-.8A4.18,4.18,0,0,0,127.41,58.71Z"/><path class="cls-1" d="M136.15,55.84a12.73,12.73,0,0,1-.7,2.74c-.65,2-1.16,2.93-1.55,2.93s-.84-.48-1-1.43a12.06,12.06,0,0,1-.14-1.26c0-.57-.08-1.31-.12-2.21-.07.24-.19.69-.38,1.34s-.4,1.52-.67,2.61q-.19.87-.63.87c-.41,0-.67-.29-.76-.85l-.08-1.51a10.79,10.79,0,0,1,0-1.61l.06-.75-.18-.38a2.1,2.1,0,0,1,.1-.73.49.49,0,0,1,.5-.32c.27,0,.41.12.41.36a2.1,2.1,0,0,1-.15.53,2.38,2.38,0,0,0-.12.64v.46c0,.18,0,.39,0,.63s0,.46,0,.64V59c0,1,.11,1.45.33,1.45.06,0,.15-.18.26-.53q.28-1.15.42-1.53c.19-.6.34-1.16.46-1.67a8.87,8.87,0,0,0,.23-1.45c0-.56.13-.9.28-1,.68,0,1,.26,1,.65,0-.3,0-.35-.07-.16s-.09.62-.16,1.31-.11,1.21-.15,1.64-.05.73-.05.91c0,1.46.19,2.18.57,2.18s.71-.71,1.17-2.13c.13-.42.25-.83.37-1.24s.22-.83.31-1.24.2-.63.32-.63S136.15,55.64,136.15,55.84Z"/><path class="cls-1" d="M148.77,55.78A15.41,15.41,0,0,1,147.56,60c-.39,1-.82,1.51-1.29,1.51s-.93-.57-1-1.7c0-.72-.05-1.45-.08-2.17-.19.71-.35,1.29-.49,1.74s-.25.77-.31,1c-.31.75-.63,1.13-1,1.13-.47,0-.71-.4-.71-1.19q0-.33,0-.78c0-.3.05-.66.07-1.08s0-.77.07-1.07,0-.56,0-.78,0-.18-.14-.18-.32.47-.52,1.41c-.15.72-.27,1.3-.37,1.73s-.17.72-.21.87c-.31.93-.66,1.39-1,1.39s-.63-.65-.63-2v-.52c0-.21,0-.46,0-.72s0-.53,0-.74,0-.39,0-.53l-.18-.47c-.07-.92.09-1.39.46-1.39s.51.26.51.79c0,.17,0,.38,0,.62s-.06.53-.11.85a8.13,8.13,0,0,0-.11.84q0,.38,0,.63,0,.47,0,.9a5,5,0,0,0,.11.81,4,4,0,0,0,.56-1.39c.11-.62.2-1.12.28-1.51s.15-.66.19-.81c.33-1.24.7-1.87,1.1-1.87s.61.45.61,1.35c-.07.58-.12,1.1-.15,1.55s-.05.86-.05,1.19c0,.65.06,1,.2,1s.64-.81,1.09-2.42a9,9,0,0,0,.54-2.64c0-.15.17-.22.42-.22a1.8,1.8,0,0,1,.79.32,18.32,18.32,0,0,0-.5,3.93q0,1.53.48,1.53c.36,0,.76-.62,1.19-1.87.07-.15.33-1.06.78-2.74a1.23,1.23,0,0,0,.08-.25q0-.15.09-.36a.21.21,0,0,1,.2-.16C148.71,55.54,148.77,55.62,148.77,55.78Z"/><path class="cls-1" d="M152.6,55.78a11.26,11.26,0,0,1-.31,1.35,13,13,0,0,1-1.51,4,1.35,1.35,0,0,1-1.07.59,1.56,1.56,0,0,1-1.37-1,3.9,3.9,0,0,1-.4-1.71c0-.42,0-.85.06-1.31s.11-.94.2-1.45c.26-1.47.63-2.2,1.11-2.2a1.22,1.22,0,0,1,.79.3.94.94,0,0,1,.36.73,8,8,0,0,1-.87,3.34,12,12,0,0,1-.84,1.56,1.33,1.33,0,0,0,.34.78.88.88,0,0,0,.69.42c.64,0,1.37-1.53,2.17-4.59a3.82,3.82,0,0,1,.38-1.15Q152.6,55.54,152.6,55.78Zm-2.68-.38c0-.46-.1-.68-.29-.68s-.18.08-.24.26a13.9,13.9,0,0,0-.74,4.35c.31-.19.6-.79.88-1.81A8.07,8.07,0,0,0,149.92,55.4Z"/><path class="cls-1" d="M156.43,55.78c0,.1-.11.55-.31,1.35a13,13,0,0,1-1.51,4,1.35,1.35,0,0,1-1.07.59,1.56,1.56,0,0,1-1.37-1,3.77,3.77,0,0,1-.4-1.71c0-.42,0-.85.06-1.31s.11-.94.2-1.45c.26-1.47.63-2.2,1.11-2.2a1.24,1.24,0,0,1,.79.3.94.94,0,0,1,.36.73,8,8,0,0,1-.87,3.34,13.32,13.32,0,0,1-.84,1.56,1.33,1.33,0,0,0,.34.78.88.88,0,0,0,.68.42c.65,0,1.37-1.53,2.18-4.59a3.82,3.82,0,0,1,.38-1.15Q156.43,55.54,156.43,55.78Zm-2.69-.38c0-.46-.09-.68-.28-.68s-.19.08-.24.26a13.61,13.61,0,0,0-.74,4.35,3.36,3.36,0,0,0,.88-1.81A8,8,0,0,0,153.74,55.4Z"/><path class="cls-1" d="M160.84,52.1a7.5,7.5,0,0,1-1.15.14h-.85l-.92,0-1,0a39.49,39.49,0,0,0-.48,4.95v1.48c0,.37,0,.63,0,.78.05.82.24,1.23.56,1.23.52,0,1.11-1.4,1.77-4.19.14-.61.25-.91.35-.91s.2.1.2.3a12.56,12.56,0,0,1-.71,2.85c-.59,1.76-1.15,2.64-1.67,2.64s-.8-.46-1-1.37a8.17,8.17,0,0,1-.22-1.88c0-.31,0-.95.13-1.92s.22-2.29.39-3.94c-.23,0-.9,0-2-.06l-.47.14a1.06,1.06,0,0,0-.42-.28c-.15-.07-.22-.15-.22-.23s.08-.14.24-.14l1.11,0,1.83-.07c0-.15,0-.34,0-.59s0-.55.06-.9l-.1-.36a.22.22,0,0,1,.23-.14,1.75,1.75,0,0,1,.8.36v.42c0,.18-.06.37-.1.57s-.09.42-.14.66h.63l1.28,0c.27,0,.64,0,1.1,0l1.73,0v.14A2.93,2.93,0,0,1,160.84,52.1Z"/><path class="cls-1" d="M160.9,59.85a3.11,3.11,0,0,1-.28,1.29,1.14,1.14,0,0,1-1,.69,1.38,1.38,0,0,1-1.05-.5,1,1,0,0,1-.32-.65c0-.25.05-.4.16-.42s.14.1.14.32c.23.51.48.77.75.77.61,0,.92-.53.92-1.58a8.65,8.65,0,0,0-.4-2.11c-.15-.49-.29-.91-.42-1.27-.06.19-.13.42-.21.71s-.19.63-.3,1-.31.69-.52.69l-.16,0a20.28,20.28,0,0,0,.82-4.46.47.47,0,0,1,.53-.54c.39,0,.58.13.58.38a1.06,1.06,0,0,1,0,.2c0,.1,0,.2-.07.31s0,.21-.07.31a1.29,1.29,0,0,0,0,.25,9.19,9.19,0,0,0,.48,2.36A8.11,8.11,0,0,1,160.9,59.85Z"/><path class="cls-1" d="M169.84,56.37a14.31,14.31,0,0,1-.38,3.18Q168.94,62,168.05,62c-.33,0-.63-.3-.89-.91H167c-.06.21-.16.31-.28.31a.39.39,0,0,1-.32-.24.76.76,0,0,1-.14-.43.58.58,0,0,1,0-.2c0-1,0-2.1.08-3.22s.17-2.33.32-3.59c.07-.49.15-1.09.24-1.82s.2-1.57.33-2.55a2.84,2.84,0,0,0,0-.87c.08-.15.25-.21.52-.18s.48.17.48.5a2.8,2.8,0,0,1-.14.71l-.15.6c0,.2-.08.4-.11.59-.3,1.68-.52,3.08-.67,4.2A22.87,22.87,0,0,0,167,57.5a10,10,0,0,0,.41-1.29c.28-1.09.68-1.64,1.21-1.64C169.43,54.57,169.84,55.17,169.84,56.37Zm-.64.38c0-1.11-.15-1.67-.46-1.67s-.77.78-1.17,2.34a12.63,12.63,0,0,0-.55,2.94,3.24,3.24,0,0,1,.49.66.53.53,0,0,0,.44.31q.48,0,.81-1.23A12.23,12.23,0,0,0,169.2,56.75Z"/><path class="cls-1" d="M175.2,61.28c-.29,0-.55-.22-.76-.66a6.79,6.79,0,0,1-.36-1l-.31.72-.32.77a1.08,1.08,0,0,1-.95.63.91.91,0,0,1-.82-.61,2.44,2.44,0,0,1-.24-1.08c0-.29,0-.63,0-1s0-.89.06-1.44a8.88,8.88,0,0,1,.22-2.28.37.37,0,0,1,.34-.16.48.48,0,0,1,.36.17.53.53,0,0,1,.17.37,1.49,1.49,0,0,1-.09.47,3,3,0,0,1-.07.31.64.64,0,0,1,0,.15c-.09.52-.16,1.1-.21,1.72s-.07,1.3-.07,2,.13.88.38.88.39-.16.57-.5a3.39,3.39,0,0,0,.18-.39c.05-.13.11-.26.16-.4a10.36,10.36,0,0,0,.67-2.62,1.38,1.38,0,0,0,0-.26c0-.14.05-.35.09-.6s.05-.35.07-.5a2.62,2.62,0,0,0,0-.37V54.9c0-.14,0-.18,0-.12,0-.35.17-.51.4-.49.39,0,.59.11.59.32a.91.91,0,0,1-.12.34,1.6,1.6,0,0,0-.13.41,3.27,3.27,0,0,1,0,.45c0,.25-.08.61-.15,1.06s-.09.72-.12,1,0,.58,0,.83c0,1.27.2,1.91.59,1.91s.75-.71,1.16-2.14c.16-.57.41-1.46.73-2.66q.08-.3.24-.3c.11,0,.16.08.16.24a12.07,12.07,0,0,1-.68,2.82C176.31,60.39,175.76,61.28,175.2,61.28Z"/><path class="cls-1" d="M179.07,59.85a3,3,0,0,1-.28,1.29,1.12,1.12,0,0,1-1,.69,1.35,1.35,0,0,1-1-.5.93.93,0,0,1-.33-.65c0-.25.06-.4.16-.42s.15.1.15.32c.22.51.47.77.74.77.62,0,.93-.53.93-1.58a9.17,9.17,0,0,0-.4-2.11c-.15-.49-.29-.91-.43-1.27,0,.19-.12.42-.21.71s-.18.63-.29,1-.31.69-.53.69l-.16,0a20.47,20.47,0,0,0,.83-4.46c0-.36.17-.54.52-.54s.59.13.59.38a1.06,1.06,0,0,1,0,.2c0,.1,0,.2-.07.31s-.05.21-.07.31a1.29,1.29,0,0,0,0,.25,9.19,9.19,0,0,0,.48,2.36A8,8,0,0,1,179.07,59.85Z"/><path class="cls-1" d="M183.55,55.82a15.46,15.46,0,0,1-.71,2.81c-.35,1.1-.57,1.76-.66,2-.27.59-.59.89-1,.89a1,1,0,0,1-.93-.73,3.61,3.61,0,0,1-.22-1.27c0-.24,0-.54,0-.91s.07-.79.12-1.28.1-.94.12-1.3,0-.68,0-.92a.54.54,0,0,1,.41-.14c.35,0,.52.09.52.28s-.06.26-.11.45-.11.44-.17.74a15.26,15.26,0,0,0-.38,3.12q0,1.35.6,1.35c.19,0,.42-.33.68-1,0,0,.24-.69.67-2,.07-.22.14-.47.22-.77s.17-.63.26-1,.18-.49.29-.49S183.55,55.64,183.55,55.82Zm-1.66-5.46c0,.5-.16.75-.5.75a.76.76,0,0,1-.56-.26.87.87,0,0,1-.25-.59.66.66,0,0,1,.22-.42.56.56,0,0,1,.41-.22C181.67,49.62,181.89,49.87,181.89,50.36Z"/><path class="cls-1" d="M189.25,55.84a13,13,0,0,1-.71,2.74c-.64,2-1.16,2.93-1.55,2.93s-.84-.48-1-1.43a12.06,12.06,0,0,1-.14-1.26c0-.57-.08-1.31-.12-2.21-.06.24-.19.69-.37,1.34s-.41,1.52-.67,2.61q-.21.87-.63.87c-.42,0-.67-.29-.77-.85l-.08-1.51a10.79,10.79,0,0,1,0-1.61l.06-.75-.18-.38a2.75,2.75,0,0,1,.1-.73.49.49,0,0,1,.51-.32c.27,0,.4.12.4.36a2.4,2.4,0,0,1-.14.53,2.38,2.38,0,0,0-.12.64v.46c0,.18,0,.39,0,.63s0,.46,0,.64V59c0,1,.11,1.45.32,1.45s.15-.18.26-.53a14.63,14.63,0,0,1,.43-1.53c.18-.6.34-1.16.46-1.67a8.81,8.81,0,0,0,.22-1.45c0-.56.13-.9.28-1,.69,0,1,.26,1,.65,0-.3,0-.35-.06-.16s-.09.62-.16,1.31-.12,1.21-.15,1.64-.05.73-.05.91c0,1.46.19,2.18.56,2.18s.71-.71,1.17-2.13c.13-.42.26-.83.37-1.24s.22-.83.32-1.24.2-.63.32-.63S189.25,55.64,189.25,55.84Z"/><path class="cls-1" d="M193.08,55.78a12.42,12.42,0,0,1-.3,1.35,13.23,13.23,0,0,1-1.52,4,1.33,1.33,0,0,1-1.06.59,1.55,1.55,0,0,1-1.37-1,3.78,3.78,0,0,1-.41-1.71c0-.42,0-.85.06-1.31s.11-.94.2-1.45c.26-1.47.63-2.2,1.11-2.2a1.2,1.2,0,0,1,.79.3.94.94,0,0,1,.36.73,8.1,8.1,0,0,1-.86,3.34,13.45,13.45,0,0,1-.85,1.56,1.33,1.33,0,0,0,.34.78.89.89,0,0,0,.69.42c.64,0,1.37-1.53,2.17-4.59.2-.77.33-1.15.39-1.15S193.08,55.62,193.08,55.78Zm-2.68-.38c0-.46-.1-.68-.28-.68s-.19.08-.25.26a13.9,13.9,0,0,0-.74,4.35c.31-.19.6-.79.88-1.81A8.07,8.07,0,0,0,190.4,55.4Z"/><path class="cls-1" d="M194.59,59.85a3.11,3.11,0,0,1-.28,1.29,1.14,1.14,0,0,1-1,.69,1.38,1.38,0,0,1-1.05-.5,1,1,0,0,1-.32-.65c0-.25.05-.4.16-.42s.14.1.14.32c.23.51.48.77.75.77.61,0,.92-.53.92-1.58a8.65,8.65,0,0,0-.4-2.11c-.15-.49-.29-.91-.42-1.27-.06.19-.13.42-.21.71s-.19.63-.3,1-.31.69-.52.69l-.16,0a20.28,20.28,0,0,0,.82-4.46.47.47,0,0,1,.53-.54c.39,0,.58.13.58.38a1.06,1.06,0,0,1,0,.2c0,.1,0,.2-.07.31s0,.21-.07.31a1.29,1.29,0,0,0,0,.25,8.88,8.88,0,0,0,.49,2.36A8.38,8.38,0,0,1,194.59,59.85Z"/><path class="cls-1" d="M197.91,59.85a3,3,0,0,1-.28,1.29,1.12,1.12,0,0,1-1,.69,1.35,1.35,0,0,1-1-.5.93.93,0,0,1-.33-.65c0-.25.06-.4.16-.42s.15.1.15.32c.22.51.47.77.74.77.62,0,.93-.53.93-1.58a9.17,9.17,0,0,0-.4-2.11c-.15-.49-.29-.91-.43-1.27,0,.19-.12.42-.21.71s-.18.63-.29,1-.31.69-.53.69l-.16,0a20.47,20.47,0,0,0,.83-4.46c0-.36.17-.54.52-.54s.59.13.59.38a1.06,1.06,0,0,1,0,.2c0,.1,0,.2-.07.31s-.05.21-.07.31a1.29,1.29,0,0,0,0,.25,9.19,9.19,0,0,0,.48,2.36A8,8,0,0,1,197.91,59.85Z"/></g></g></svg>