<?xml version="1.0" encoding="UTF-8"?>
<svg width="203px" height="138px" viewBox="0 0 203 138" version="1.1" xmlns="http://www.w3.org/2000/svg" xmlns:xlink="http://www.w3.org/1999/xlink">
    <!-- Generator: Sketch 45 (43475) - http://www.bohemiancoding.com/sketch -->
    <title>Logo/notagline</title>
    <desc>Created with Sketch.</desc>
    <defs></defs>
    <g id="Symbols" stroke="none" stroke-width="1" fill="none" fill-rule="evenodd">
        <g id="Logo/notagline">
            <g id="Group-2">
                <g id="Group-5" transform="translate(0.000000, 0.247000)" fill="#FF7810">
                    <path d="M88.2343,0.7529 C86.7543,0.9019 85.0703,1.8669 83.2713,2.8369 C81.0573,4.0269 78.6723,5.2199 76.2863,4.8779 C71.5133,4.1919 61.0813,6.4429 58.2403,10.7159 C56.3113,13.6029 49.9853,12.7069 46.0573,15.4059 C40.5653,19.1629 35.5493,24.4999 33.5093,25.8659 C31.4593,27.2119 23.1593,28.7189 22.4703,34.1679 C21.7883,39.6229 16.9233,41.7789 14.8833,45.1849 C12.8443,48.5869 10.2473,49.5939 6.7103,53.3639 C4.2113,56.0159 0.4653,62.6099 0.0003,68.6649 L0.0003,71.0169 C0.1683,73.0619 0.8153,74.9679 2.1333,76.5499 C8.2923,83.9379 92.0223,88.2439 98.2943,132.3909 C99.2553,139.0829 102.0673,137.6019 102.6483,133.5479 C110.1323,81.1289 198.8133,81.5409 202.2213,74.7019 C204.6813,69.7789 200.7373,60.0029 196.0683,53.7729 C192.3693,48.8419 183.9283,46.4369 180.5153,42.3519 C177.1133,38.2559 179.6803,34.8899 173.1083,31.0869 C161.1853,24.1779 160.0283,24.8149 153.2403,17.4889 C150.9273,14.9959 140.3193,13.0469 138.9633,8.9619 C138.0543,6.2389 136.5393,6.5449 134.6223,6.8469 C133.6633,7.0009 132.6023,7.1509 131.4663,6.9239 C128.0653,6.2359 125.3333,2.8279 119.8863,2.1489 C114.4433,1.4689 112.3963,2.8279 110.3503,6.2359 C108.3093,9.6449 106.9863,25.2609 103.5723,25.3349 C101.3383,25.3829 100.3323,16.0059 98.0893,8.2869 C96.1773,1.7049 92.6423,1.4689 89.2313,0.7899 C89.1513,0.7709 89.0723,0.7599 88.9933,0.7529 L88.2343,0.7529 Z" id="Fill-3"></path>
                </g>
                <path d="M128.455,49.4428 C126.558,49.4428 124.41,50.4218 123.06,51.4868 C122.513,50.3798 121.375,49.5288 119.689,49.5288 C119.015,49.5288 118.089,49.6998 117.037,50.0838 L117.037,53.3638 C117.963,53.3198 118.848,53.2768 118.848,54.0458 L118.848,70.9088 L123.526,70.9088 L123.526,56.1748 C124.79,54.7248 126.683,53.4908 127.951,53.4908 C130.012,53.4908 130.688,54.6808 130.688,57.4938 L130.688,70.9088 L135.321,70.9088 L135.321,56.8548 C135.321,51.9588 133.889,49.4428 128.455,49.4428" id="Fill-6" fill="#FFFFFF"></path>
                <path d="M83.4569,49.3578 C81.3499,49.3578 79.0329,50.6368 77.6399,52.2128 C76.5879,50.4218 74.7339,49.3578 72.3749,49.3578 C70.5639,49.3578 68.6669,49.8688 67.1499,51.2338 C66.6019,50.1688 65.5059,49.4868 63.9049,49.4868 C63.2329,49.4868 62.3459,49.6578 61.2499,50.0398 L61.2499,53.3198 C62.1349,53.2768 63.0209,53.2768 63.0209,54.0878 L63.0209,70.9088 L67.6139,70.9088 L67.6139,56.8148 C68.4129,55.1098 69.9739,53.4488 71.6159,53.4488 C73.9749,53.4488 74.2679,55.1518 74.2679,58.4328 L74.2679,70.9088 L78.9479,70.9088 L78.9479,56.8548 C79.4939,55.8328 80.9259,53.5768 82.7379,53.5768 C84.3799,53.5768 85.5179,54.1698 85.5179,57.4078 L85.5179,70.9088 L90.2399,70.9088 L90.2399,56.4718 C90.2399,51.9158 88.6369,49.3578 83.4569,49.3578" id="Fill-8" fill="#FFFFFF"></path>
                <path d="M52.2362,56.4721 C53.4582,54.7241 55.3972,54.2991 57.5462,54.2991 L58.2602,49.4001 C54.9312,49.6151 53.1632,50.5511 51.8142,51.8291 C51.3512,50.4221 50.0452,49.4871 48.3172,49.4871 C47.6872,49.4871 46.7592,49.7001 45.6642,50.2551 L45.6642,53.4061 C46.6312,53.3641 47.4762,53.4061 47.4762,54.0881 L47.4762,70.9091 L52.2362,70.9091 L52.2362,56.4721 Z" id="Fill-10" fill="#FFFFFF"></path>
                <path d="M40.059,56.557 C40.059,50.595 35.803,49.487 32.349,49.487 C29.313,49.487 26.114,51.148 25.06,51.872 L25.988,55.025 C27.8,54.256 30.24,53.617 32.012,53.617 C34.077,53.617 35.423,54.17 35.381,56.342 L35.381,57.621 L31.883,58.305 C27.671,59.113 24.26,60.434 24.26,65.375 C24.26,68.695 26.493,71.166 30.619,71.166 C32.939,71.166 34.875,70.698 36.1,69.42 C36.856,70.614 38.079,71.124 39.385,71.124 C40.352,71.124 41.408,70.742 42.375,69.759 L42.375,67.119 L41.279,67.204 C40.607,67.204 40.059,67.034 40.059,66.054 L40.059,56.557 Z M31.042,67.076 C29.862,67.076 28.977,66.354 28.977,64.946 C28.977,63.671 29.778,62.648 32.771,61.88 L35.381,61.198 L35.381,64.864 C35.381,64.864 33.529,67.076 31.042,67.076 L31.042,67.076 Z" id="Fill-12" fill="#FFFFFF"></path>
                <path d="M176.455,56.557 C176.455,50.595 172.199,49.487 168.745,49.487 C165.709,49.487 162.51,51.148 161.457,51.872 L162.384,55.025 C164.196,54.256 166.636,53.617 168.408,53.617 C170.473,53.617 171.819,54.17 171.777,56.342 L171.777,57.621 L168.279,58.305 C164.067,59.113 160.656,60.434 160.656,65.375 C160.656,68.695 162.889,71.166 167.016,71.166 C169.335,71.166 171.272,70.698 172.496,69.42 C173.252,70.614 174.475,71.124 175.781,71.124 C176.748,71.124 177.804,70.742 178.771,69.759 L178.771,67.119 L177.675,67.204 C177.003,67.204 176.455,67.034 176.455,66.054 L176.455,56.557 Z M167.438,67.076 C166.258,67.076 165.373,66.354 165.373,64.946 C165.373,63.671 166.175,62.648 169.167,61.88 L171.777,61.198 L171.777,64.864 C171.777,64.864 169.926,67.076 167.438,67.076 L167.438,67.076 Z" id="Fill-14" fill="#FFFFFF"></path>
                <path d="M104.4799,66.9511 C101.1079,66.9511 99.7179,64.6931 99.7179,60.3051 C99.7179,56.1311 101.2789,53.6171 104.4379,53.6171 C107.7229,53.6171 109.3659,56.0041 109.3659,60.2631 C109.3659,64.6511 107.7229,66.9511 104.4799,66.9511 M104.5219,49.4001 C98.4979,49.4001 94.7469,53.7451 94.7469,60.3051 C94.7469,67.0341 98.4559,71.2951 104.3539,71.2951 C110.5039,71.2951 114.2969,67.1621 114.2969,60.4761 C114.2969,53.4481 110.7149,49.4001 104.5219,49.4001" id="Fill-16" fill="#FFFFFF"></path>
                <path d="M144.2118,57.2817 C144.5908,55.3217 145.8978,53.3197 148.4678,53.3197 C151.1638,53.3197 152.3008,55.1097 152.5118,57.2817 L144.2118,57.2817 Z M157.0188,58.3467 C156.9798,52.2987 153.0178,49.4867 148.4258,49.4867 C142.5258,49.4867 139.1148,54.1707 139.1148,60.3477 C139.1148,66.2257 142.4438,71.1667 148.8478,71.1667 C152.4268,71.1667 154.7038,70.1447 156.9368,68.5267 L156.0918,65.1177 C153.7758,66.3117 151.3748,66.8647 149.6488,66.8647 C145.8128,66.8647 144.1298,64.2247 144.0438,60.9877 L157.0188,60.9877 L157.0188,58.3467 Z" id="Fill-18" fill="#FFFFFF"></path>
            </g>
        </g>
    </g>
</svg>